<svg xmlns="http://www.w3.org/2000/svg" xmlns:xlink="http://www.w3.org/1999/xlink" fill="none" version="1.1" width="201" height="104.000244140625" viewBox="0 0 201 104.000244140625"><defs><linearGradient x1="0.5" y1="0" x2="0.5" y2="0.9124176502227783" id="master_svg0_3_13739"><stop offset="0%" stop-color="#E2EDFF" stop-opacity="1"/><stop offset="100%" stop-color="#FFFFFF" stop-opacity="0"/></linearGradient><linearGradient x1="0" y1="-0.09915225207805634" x2="1.1362897112830501" y2="0.30231745209147176" id="master_svg1_3_13746"><stop offset="0%" stop-color="#A7CCE8" stop-opacity="0"/><stop offset="100%" stop-color="#A7C0E8" stop-opacity="0.20000000298023224"/></linearGradient><linearGradient x1="0" y1="-0.09915225207805634" x2="0.7967906436877837" y2="1.0637203821783854" id="master_svg2_3_13746"><stop offset="0%" stop-color="#A7CCE8" stop-opacity="0"/><stop offset="100%" stop-color="#A7C0E8" stop-opacity="0.20000000298023224"/></linearGradient><linearGradient x1="0" y1="-0.09915225207805634" x2="0.7967906436877837" y2="1.0637203821783854" id="master_svg3_3_13746"><stop offset="0%" stop-color="#A7CCE8" stop-opacity="0"/><stop offset="100%" stop-color="#A7C0E8" stop-opacity="0.20000000298023224"/></linearGradient><linearGradient x1="1" y1="0.5" x2="0" y2="0.5" id="master_svg4_3_13776"><stop offset="0%" stop-color="#EBF4FF" stop-opacity="1"/><stop offset="100%" stop-color="#D4E8F8" stop-opacity="1"/></linearGradient><linearGradient x1="1" y1="0.5" x2="0" y2="0.5" id="master_svg5_3_13776"><stop offset="0%" stop-color="#EBF4FF" stop-opacity="1"/><stop offset="100%" stop-color="#D4E8F8" stop-opacity="1"/></linearGradient><linearGradient x1="1" y1="0.5" x2="0" y2="0.5" id="master_svg6_3_13776"><stop offset="0%" stop-color="#EBF4FF" stop-opacity="1"/><stop offset="100%" stop-color="#D4E8F8" stop-opacity="1"/></linearGradient><linearGradient x1="1.070973515510559" y1="1.149608850479126" x2="0.932304362832548" y2="0.172367507531566" id="master_svg7_11_12754"><stop offset="0%" stop-color="#1A74F5" stop-opacity="1"/><stop offset="100%" stop-color="#D6EBFF" stop-opacity="1"/></linearGradient><linearGradient x1="0.4757199287414551" y1="0" x2="0.4861436760993617" y2="1.0001444139642566" id="master_svg8_11_12762"><stop offset="0%" stop-color="#90B8FF" stop-opacity="1"/><stop offset="100%" stop-color="#F8FBFE" stop-opacity="1"/></linearGradient><filter id="master_svg9_14_05465" filterUnits="objectBoundingBox" color-interpolation-filters="sRGB" x="-0.6428571428571429" y="-0.5" width="2.4285714285714284" height="2"><feFlood flood-opacity="0" result="BackgroundImageFix"/><feColorMatrix in="SourceAlpha" type="matrix" values="0 0 0 0 0 0 0 0 0 0 0 0 0 0 0 0 0 0 127 0"/><feOffset dy="0" dx="2"/><feGaussianBlur stdDeviation="5"/><feColorMatrix type="matrix" values="0 0 0 0 0.3504348695278168 0 0 0 0 0.5059814453125 0 0 0 0 0.851424515247345 0 0 0 0.09563472867012024 0"/><feBlend mode="normal" in2="BackgroundImageFix" result="effect1_dropShadow"/><feBlend mode="normal" in="SourceGraphic" in2="effect1_dropShadow" result="shape"/></filter><linearGradient x1="0.5" y1="0" x2="0.5" y2="0.6934717297554016" id="master_svga_11_12767"><stop offset="0%" stop-color="#E9F1FF" stop-opacity="1"/><stop offset="100%" stop-color="#F9FBFF" stop-opacity="1"/></linearGradient><filter id="master_svgb_14_05473" filterUnits="objectBoundingBox" color-interpolation-filters="sRGB" x="-2.25" y="-2.5" width="6" height="6"><feFlood flood-opacity="0" result="BackgroundImageFix"/><feColorMatrix in="SourceAlpha" type="matrix" values="0 0 0 0 0 0 0 0 0 0 0 0 0 0 0 0 0 0 127 0"/><feOffset dy="0" dx="2"/><feGaussianBlur stdDeviation="5"/><feColorMatrix type="matrix" values="0 0 0 0 0.3504348695278168 0 0 0 0 0.5059814453125 0 0 0 0 0.851424515247345 0 0 0 0.09563472867012024 0"/><feBlend mode="normal" in2="BackgroundImageFix" result="effect1_dropShadow"/><feBlend mode="normal" in="SourceGraphic" in2="effect1_dropShadow" result="shape"/></filter><linearGradient x1="0.5" y1="0" x2="0.5" y2="0.6934717297554016" id="master_svgc_11_12767"><stop offset="0%" stop-color="#E9F1FF" stop-opacity="1"/><stop offset="100%" stop-color="#F9FBFF" stop-opacity="1"/></linearGradient><linearGradient x1="1.070973515510559" y1="1.149608850479126" x2="0.7243975992318373" y2="0.20187577029496795" id="master_svgd_11_12754"><stop offset="0%" stop-color="#1A74F5" stop-opacity="1"/><stop offset="100%" stop-color="#D6EBFF" stop-opacity="1"/></linearGradient><linearGradient x1="0.5" y1="0" x2="0.5" y2="1" id="master_svge_11_12773"><stop offset="0%" stop-color="#90B8FF" stop-opacity="1"/><stop offset="100%" stop-color="#F1F7FE" stop-opacity="1"/></linearGradient><linearGradient x1="1.070973515510559" y1="1.149608850479126" x2="0.7244270443916321" y2="0.20186500251293182" id="master_svgf_11_12754"><stop offset="0%" stop-color="#1A74F5" stop-opacity="1"/><stop offset="100%" stop-color="#D6EBFF" stop-opacity="1"/></linearGradient><linearGradient x1="0.4757199287414551" y1="0" x2="0.5" y2="1" id="master_svgg_11_12762"><stop offset="0%" stop-color="#90B8FF" stop-opacity="1"/><stop offset="100%" stop-color="#F8FBFE" stop-opacity="1"/></linearGradient><clipPath id="master_svgh_14_05447"><rect x="105.08056640625" y="5.668243408203125" width="16" height="16" rx="0"/></clipPath></defs><g><path d="M200,85.561092C200,75.13826,152.07256,52.99999999999998,100,52.99999999999998C47.927437,52.99999999999998,0,75.13826,0,85.561092C0,95.983925,52.746338,104.012276,100,103.999969C147.03152,103.98772,200,95.983925,200,85.561092Z" fill-rule="evenodd" fill="url(#master_svg0_3_13739)" fill-opacity="1"/></g><path d="M144.88970743925782,56.14544677734375C144.99620863925782,56.14544677734375,145.1003980392578,56.17650591534375,145.18951563925782,56.23482031334375L152.46303363925782,60.99427887734375C152.9183874392578,61.29224207734375,152.70740313925782,61.99999997734375,152.1632251392578,61.99999997734375C152.05672363925783,61.99999997734375,151.9525346392578,61.96894077734375,151.86341763925782,61.910626377343746L144.5898993392578,57.15116777734375C144.1345453392578,56.85320478734375,144.3455298392578,56.14544677734375,144.88970743925782,56.14544677734375" fill-rule="evenodd" fill="url(#master_svg1_3_13746)" fill-opacity="1"/><g><path d="M171.99975570800783,76.72292133232422C171.99975570800783,73.72292133232422,164.0911558080078,67.57747463232423,162.0772930080078,69.23980903232422C160.06343042800782,70.90214343232422,160.91963924800783,73.57682613232421,163.23109410800782,78.03375813232422C164.61746070800783,80.70694113232422,167.49520920800782,80.78113013232422,169.5766067080078,79.76504513232422L171.8052597080078,81.82041513232421C171.93046770800782,81.93588813232422,172.09455170800783,82.00000013232422,172.26487770800782,82.00000013232422C172.8821717080078,82.00000013232422,173.17827270800782,81.24217813232421,172.72449470800782,80.82368313232422L170.7509031080078,79.00354313232421C171.5095427080078,78.35847663232423,171.99975570800783,77.54951383232422,171.99975570800783,76.72292133232422Z" fill-rule="evenodd" fill="url(#master_svg2_3_13746)" fill-opacity="1"/></g><g><path d="M29.99975570800781,69.72292133232422C29.99975570800781,66.72292133232422,22.091155808007812,60.57747463232422,20.077293008007814,62.23980903232422C18.063430428007813,63.902143432324216,18.91963924800781,66.57682613232421,21.231094108007813,71.03375813232422C22.617460708007812,73.70694113232422,25.495209208007815,73.78113013232422,27.576606708007812,72.76504513232422L29.80525970800781,74.82041513232421C29.93046770800781,74.93588813232422,30.094551708007813,75.00000013232422,30.264877708007813,75.00000013232422C30.88217170800781,75.00000013232422,31.17827270800781,74.24217813232421,30.72449470800781,73.82368313232422L28.75090310800781,72.00354313232421C29.509542708007814,71.35847663232423,29.99975570800781,70.54951383232422,29.99975570800781,69.72292133232422Z" fill-rule="evenodd" fill="url(#master_svg3_3_13746)" fill-opacity="1"/></g><path d="M30 70C30 69.44771525016921 30.447715250169207 69 31 69L31 69C31.552284749830793 69 32 69.44771525016921 32 70L32 74C32 74.55228474983079 31.552284749830793 75 31 75L31 75C30.447715250169207 75 30 74.55228474983079 30 74Z" fill="#D4E4F8" fill-opacity="1"/><path d="M30.99102930625,60.18880844116218C32.949934006250004,60.18880844116218,35.833707806250004,67.20872404116211,34.90883920625,69.98333264116211C33.98396970625,72.7579404411621,28.10725520625,73.08543844116211,27.07321980625,69.98333264116211C26.03918444625,66.88122604116211,29.03212450625,60.18880844116218,30.99102930625,60.18880844116218Z" fill-rule="evenodd" fill="url(#master_svg4_3_13776)" fill-opacity="1"/><path d="M152 57C152 56.4477152501692 152.4477152501692 56 153 56L153 56C153.5522847498308 56 154 56.4477152501692 154 57L154 61C154 61.5522847498308 153.5522847498308 62 153 62L153 62C152.4477152501692 62 152 61.5522847498308 152 61Z" fill="#D4E4F8" fill-opacity="1"/><path d="M152.99102930625,47.18880844116218C154.94993400625,47.18880844116218,157.83370780625,54.20872404116211,156.90883920625,56.98333264116211C155.98396970625,59.757940441162106,150.10725520625,60.08543844116211,149.07321980625,56.98333264116211C148.03918444625,53.88122604116211,151.03212450625,47.18880844116218,152.99102930625,47.18880844116218Z" fill-rule="evenodd" fill="url(#master_svg5_3_13776)" fill-opacity="1"/><path d="M171.9999966621399 76C171.9999966621399 75.44771525016921 172.4477119123091 75 172.9999966621399 75L172.9999966621399 75C173.55228141197068 75 173.9999966621399 75.44771525016921 173.9999966621399 76L173.9999966621399 81C173.9999966621399 81.55228474983079 173.55228141197068 82 172.9999966621399 82L172.9999966621399 82C172.4477119123091 82 171.9999966621399 81.55228474983079 171.9999966621399 81Z" fill="#D4E4F8" fill-opacity="1"/><path d="M172.99999661367187,60.00000000000011C175.99999621367186,60.00000000000011,180.41640501367186,70.750776,178.99999601367188,75C177.58358901367188,79.249224,168.58358871367187,79.750776,166.99999657367187,75C165.41640451367186,70.249224,169.99999661367187,60.00000000000011,172.99999661367187,60.00000000000011Z" fill-rule="evenodd" fill="url(#master_svg6_3_13776)" fill-opacity="1"/><path d="M38 14.000030517578125C38 11.790891518254952 39.79086100067683 10.000030517578125 42 10.000030517578125L72 10.000030517578125C74.20913899932317 10.000030517578125 76 11.790891518254952 76 14.000030517578125L76 67.00003051757812C76 69.2091695169013 74.20913899932317 71.00003051757812 72 71.00003051757812L42 71.00003051757812C39.79086100067683 71.00003051757812 38 69.2091695169013 38 67.00003051757812Z" fill="url(#master_svg7_11_12754)" fill-opacity="1"/><rect x="35" y="10.000030517578125" width="38" height="58" rx="4" fill="url(#master_svg8_11_12762)" fill-opacity="1"/><path d="M40 18.000030517578125C40 16.343176268085745 41.34314575050762 15.000030517578125 43 15.000030517578125L65 15.000030517578125C66.65685424949238 15.000030517578125 68 16.343176268085745 68 18.000030517578125L68 52.000030517578125C68 53.65688476707051 66.65685424949238 55.000030517578125 65 55.000030517578125L43 55.000030517578125C41.34314575050762 55.000030517578125 40 53.65688476707051 40 52.000030517578125Z" fill="url(#master_svga_11_12767)" fill-opacity="1" filter="url(#master_svg9_14_05465)"/><path d="M50 61.000030517578125C50 58.79089151825495 51.79086100067683 57.000030517578125 54 57.000030517578125L54 57.000030517578125C56.20913899932317 57.000030517578125 58 58.79089151825495 58 61.000030517578125L58 61.000030517578125C58 63.2091695169013 56.20913899932317 65.00003051757812 54 65.00003051757812L54 65.00003051757812C51.79086100067683 65.00003051757812 50 63.2091695169013 50 61.000030517578125Z" fill="url(#master_svgc_11_12767)" fill-opacity="1" filter="url(#master_svgb_14_05473)"/><g><path d="M133.21898305322264,21.503200570703125Q132.51894405322267,23.253301970703127,131.96890605322267,25.151469970703126Q129.97011505322266,24.087960970703126,128.21103705322267,22.658490970703127Q131.05911205322266,20.305756570703124,134.34403405322266,19.007649470703125Q133.75676005322265,20.158756270703122,133.21898305322264,21.503200570703125ZM143.09244905322265,17.409853970703125Q140.51738405322266,17.409852070703124,138.09921305322266,23.455288970703123Q137.40624005322266,25.187718970703123,136.87937205322265,27.101275970703124Q139.89268705322266,27.922009970703122,143.09235905322265,27.922009970703122Q146.29214105322265,27.922009970703122,149.30552705322265,27.101255970703125Q148.77866405322266,25.187726970703125,148.08568905322267,23.455287970703125Q145.66752005322266,17.409853970703125,143.09244905322265,17.409853970703125ZM151.84086205322265,19.007638470703125Q155.12578605322267,20.305742270703124,157.97386205322266,22.658471970703125Q156.21478605322267,24.087939970703125,154.21599205322266,25.151450970703124Q153.66596205322264,23.253307970703126,152.96591905322265,21.503200570703125Q152.42814205322264,20.158751470703123,151.84086205322265,19.007638470703125ZM161.68410105322266,26.410966970703125Q158.81509005322266,28.829305970703125,155.40847805322267,30.431048970703124Q156.04036705322267,34.19370297070313,156.18792005322265,38.43444597070312L166.61542905322267,38.43444597070312Q165.93475705322265,31.683335970703126,161.68410105322266,26.410966970703125ZM172.00125505322265,40.97343397070313Q171.96982605322265,29.056579970703126,163.53415705322266,20.620908770703124Q155.06694005322265,12.153687477112125,143.09246805322266,12.153687238693125Q131.11798505322267,12.153685331344125,122.65076255322265,20.620908770703124Q114.21508692922265,29.056584970703124,114.18365858822266,40.97342697070313Q114.18214845657366,41.017964970703126,114.18214845657366,41.06253097070312Q114.18214845657366,41.10708797070313,114.18365815682266,41.15162097070312Q114.21502897522265,53.068568970703126,122.65076255322265,61.504298970703125Q131.11586405322265,69.96939897070312,143.08646005322265,69.97151897070313L143.09244905322265,69.97151897070313Q155.06693305322267,69.97151897070313,163.53414905322265,61.50430297070312Q171.96989105322265,53.06856497070312,172.00125505322265,41.15161297070313Q172.00276605322267,41.10708397070313,172.00276605322267,41.06253097070312Q172.00276605322267,41.01796897070312,172.00125505322265,40.97343397070313ZM166.61544405322266,43.69061497070312L156.18792705322267,43.69061497070312Q156.04039005322267,47.93123597070313,155.40853905322265,51.69381297070313Q158.81522005322265,53.295592970703126,161.68428405322265,55.71401597070312Q165.93482205322266,50.441672970703124,166.61544405322266,43.69061497070312ZM150.37628905322265,49.868514970703124Q150.80658005322266,46.947677970703126,150.92849705322266,43.69061497070312L135.25640305322264,43.69061497070312Q135.37832105322266,46.94767397070313,135.80860905322265,49.86849597070312Q139.34787905322264,48.94665497070312,143.09236705322266,48.94665497070312Q146.83695205322266,48.94665497070312,150.37628905322265,49.868514970703124ZM136.87927405322264,55.02358197070313Q139.89263705322264,54.202819970703125,143.09236705322266,54.202819970703125Q146.29219005322267,54.202819970703125,149.30562205322266,55.023601970703126Q148.77872105322265,56.937343970703125,148.08568905322267,58.66992197070312Q145.66752005322266,64.71535497070312,143.09244905322265,64.71535497070312Q140.51738405322266,64.71535497070312,138.09921305322266,58.669917970703125Q137.40617605322265,56.93732097070313,136.87927405322264,55.02358197070313ZM130.77636305322267,51.69378997070312Q130.14451405322265,47.93121297070312,129.99697805322265,43.69061497070312L119.56947135322265,43.69061497070312Q120.25009585322266,50.441657970703126,124.50061905322266,55.71399697070313Q127.36967705322266,53.29557797070313,130.77636305322267,51.69378997070312ZM119.56948615322266,38.43444597070312L129.99698305322266,38.43444597070312Q130.14453305322266,34.19372197070312,130.77642105322266,30.431067970703126Q127.36980705322266,28.829326970703125,124.50079805322265,26.410986970703124Q120.25015635322265,31.683347970703124,119.56948615322266,38.43444597070312ZM131.96881305322265,56.973414970703125Q132.51888305322265,58.87174997070313,133.21898305322264,60.622004970703124Q133.75676005322265,61.966449970703124,134.34403205322266,63.117557970703125Q131.05898305322265,61.819396970703124,128.21081105322264,59.466525970703124Q129.96994205322267,58.03697997070312,131.96881305322265,56.973414970703125ZM151.84086605322267,63.11756497070313Q152.42814605322266,61.96644197070312,152.96591905322265,60.62200897070313Q153.66602305322266,58.87174997070313,154.21608705322265,56.97343097070313Q156.21494705322266,58.03699097070312,157.97408705322266,59.466544970703126Q155.12591505322266,61.819407970703125,151.84086605322267,63.11756497070313ZM135.25640905322265,38.43444597070312Q135.37834005322264,35.17726697070313,135.80866205322266,32.25635197070312Q139.34789705322265,33.17817697070312,143.09235905322265,33.17817697070312Q146.83692505322267,33.17817697070312,150.37623605322267,32.256330970703125Q150.80656405322264,35.17726497070312,150.92849305322267,38.43444597070312L135.25640905322265,38.43444597070312Z" fill-rule="evenodd" fill="url(#master_svgd_11_12754)" fill-opacity="1"/></g><g><path d="M131.036816,19.349636117578125Q130.336777,21.099737517578127,129.786739,22.997905517578126Q127.787948,21.934396517578126,126.02887,20.504926517578127Q128.876945,18.152192117578124,132.161867,16.854085017578125Q131.574593,18.005191817578122,131.036816,19.349636117578125ZM140.910282,15.256289517578125Q138.335217,15.256287617578124,135.917046,21.301724517578123Q135.224073,23.034154517578123,134.697205,24.947711517578124Q137.71052,25.768445517578122,140.910192,25.768445517578122Q144.109974,25.768445517578122,147.12336,24.947691517578125Q146.596497,23.034162517578125,145.903522,21.301723517578125Q143.485353,15.256289517578125,140.910282,15.256289517578125ZM149.658695,16.854074017578125Q152.943619,18.152177817578124,155.791695,20.504907517578125Q154.032619,21.934375517578125,152.033825,22.997886517578124Q151.483795,21.099743517578126,150.783752,19.349636117578125Q150.245975,18.005187017578123,149.658695,16.854074017578125ZM159.501934,24.257402517578125Q156.632923,26.675741517578125,153.226311,28.277484517578124Q153.8582,32.04013851757813,154.005753,36.28088151757812L164.433262,36.28088151757812Q163.75259,29.529771517578126,159.501934,24.257402517578125ZM169.819088,38.81986951757813Q169.787659,26.903015517578126,161.35199,18.467344317578124Q152.884773,10.000123023987125,140.910301,10.000122785568125Q128.935818,10.000120878219125,120.46859549999999,18.467344317578124Q112.032919876,26.903020517578124,112.001491535,38.81986251757813Q111.999981403351,38.864400517578126,111.999981403351,38.90896651757812Q111.999981403351,38.95352351757813,112.0014911036,38.99805651757812Q112.032861922,50.915004517578126,120.46859549999999,59.350734517578125Q128.933697,67.81583451757812,140.904293,67.81795451757813L140.910282,67.81795451757813Q152.884766,67.81795451757813,161.351982,59.35073851757812Q169.787724,50.91500051757812,169.819088,38.99804851757813Q169.82059900000002,38.95351951757813,169.82059900000002,38.90896651757812Q169.82059900000002,38.86440451757812,169.819088,38.81986951757813ZM164.433277,41.53705051757812L154.00576,41.53705051757812Q153.858223,45.77767151757813,153.226372,49.54024851757813Q156.633053,51.142028517578126,159.502117,53.56045151757812Q163.752655,48.288108517578124,164.433277,41.53705051757812ZM148.194122,47.714950517578124Q148.624413,44.794113517578126,148.74633,41.53705051757812L133.07423599999998,41.53705051757812Q133.196154,44.79410951757813,133.626442,47.71493151757812Q137.16571199999998,46.79309051757812,140.9102,46.79309051757812Q144.654785,46.79309051757812,148.194122,47.714950517578124ZM134.697107,52.87001751757813Q137.71047,52.049255517578125,140.9102,52.049255517578125Q144.110023,52.049255517578125,147.123455,52.870037517578126Q146.596554,54.783779517578125,145.903522,56.51635751757812Q143.485353,62.561790517578125,140.910282,62.561790517578125Q138.335217,62.561790517578125,135.917046,56.516353517578125Q135.224009,54.78375651757813,134.697107,52.87001751757813ZM128.594196,49.54022551757812Q127.962347,45.77764851757812,127.814811,41.53705051757812L117.3873043,41.53705051757812Q118.0679288,48.288093517578126,122.31845200000001,53.56043251757813Q125.18751,51.14201351757813,128.594196,49.54022551757812ZM117.3873191,36.28088151757812L127.81481600000001,36.28088151757812Q127.962366,32.04015751757812,128.594254,28.277503517578126Q125.18764,26.675762517578125,122.318631,24.257422517578124Q118.0679893,29.529783517578124,117.3873191,36.28088151757812ZM129.786646,54.819850517578125Q130.336716,56.71818551757813,131.036816,58.468440517578124Q131.574593,59.812885517578124,132.161865,60.963993517578125Q128.876816,59.665832517578124,126.028644,57.312961517578124Q127.787775,55.88341551757812,129.786646,54.819850517578125ZM149.658699,60.96400051757813Q150.245979,59.81287751757812,150.783752,58.46844451757813Q151.483856,56.71818551757813,152.03392,54.81986651757813Q154.03278,55.88342651757812,155.79192,57.312980517578126Q152.943748,59.665843517578125,149.658699,60.96400051757813ZM133.074242,36.28088151757812Q133.196173,33.02370251757813,133.626495,30.102787517578125Q137.16573,31.024612517578124,140.910192,31.024612517578124Q144.65475800000002,31.024612517578124,148.194069,30.102766517578125Q148.624397,33.02370051757812,148.746326,36.28088151757812L133.074242,36.28088151757812Z" fill-rule="evenodd" fill="url(#master_svge_11_12773)" fill-opacity="1"/></g><g><path d="M95.5,56.048614501953125Q95.855955,56.048614501953125,96.21148099999999,56.03114750195313Q96.567007,56.013683501953125,96.921247,55.978794501953125Q97.275488,55.94390450195313,97.62759,55.891674501953126Q97.979692,55.83944350195313,98.328808,55.77000050195312Q98.67792299999999,55.70055750195313,99.023212,55.61406750195313Q99.3685,55.52757650195312,99.709127,55.42424950195313Q100.049755,55.320920501953125,100.384901,55.20100250195313Q100.720047,55.081085501953126,101.048908,54.94486650195313Q101.37776600000001,54.808647501953125,101.699547,54.65645750195313Q102.021328,54.50426850195312,102.335253,54.33647150195313Q102.649178,54.16867450195312,102.954489,53.98567750195312Q103.2598,53.80268050195313,103.555767,53.60492150195313Q103.851732,53.40716350195312,104.137638,53.195121501953125Q104.423546,52.98308150195312,104.69870399999999,52.757266501953126Q104.973858,52.531450501953124,105.237602,52.29240450195313Q105.50134800000001,52.053359501953125,105.753048,51.801662501953125Q106.004745,51.549962501953125,106.243792,51.28621650195312Q106.48283599999999,51.022472501953125,106.708652,50.74731650195312Q106.934467,50.472158501953125,107.146509,50.18625250195312Q107.358551,49.90034650195312,107.556309,49.60438150195313Q107.754066,49.30841450195312,107.937063,49.00310550195313Q108.12006,48.697792501953124,108.287857,48.38386750195313Q108.455654,48.06994250195312,108.607843,47.74816150195312Q108.76003299999999,47.426380501953126,108.896252,47.09752250195312Q109.032471,46.768661501953126,109.15239,46.433515501953124Q109.272306,46.09836750195312,109.375635,45.75774050195312Q109.478962,45.41711250195313,109.565453,45.07182550195313Q109.651943,44.726537501953125,109.721386,44.37742250195312Q109.790829,44.028306501953125,109.84306000000001,43.67620450195312Q109.89529,43.32410250195312,109.93018000000001,42.96986250195312Q109.965069,42.61562150195313,109.982533,42.260095501953124Q110,41.90456950195313,110,41.548614501953125Q110,41.19265950195312,109.982536,40.837133501953126Q109.965069,40.48160750195312,109.93018000000001,40.127367501953124Q109.89529,39.77312450195313,109.84306000000001,39.421022501953125Q109.790829,39.06892050195312,109.721386,38.71980450195312Q109.651943,38.37068950195312,109.565453,38.025402501953124Q109.478962,37.68011450195313,109.375635,37.33948750195312Q109.272306,36.998859401953126,109.152388,36.663711501953124Q109.032471,36.32856370195313,108.896252,35.999704401953124Q108.76003299999999,35.670845001953126,108.607843,35.349064801953126Q108.455654,35.027285601953125,108.287857,34.71336130195313Q108.12006,34.39943690195312,107.937063,34.09412430195312Q107.754066,33.78881170195312,107.556307,33.49284550195313Q107.358549,33.196879901953125,107.146507,32.91097450195313Q106.934467,32.625068701953126,106.708652,32.349911701953125Q106.48283599999999,32.074754701953125,106.24379,31.811009401953125Q106.004745,31.547264101953125,105.753048,31.295566101953124Q105.50134800000001,31.043867801953127,105.237602,30.804823201953127Q104.973858,30.565778301953124,104.698702,30.339963001953123Q104.42354399999999,30.114147401953126,104.137638,29.902105101953126Q103.851732,29.690063001953124,103.555767,29.492305001953124Q103.2598,29.294546801953125,102.954491,29.111549401953127Q102.649178,28.928552001953125,102.335253,28.760756101953124Q102.021328,28.592960001953124,101.699547,28.440769601953125Q101.37776600000001,28.288579201953127,101.048908,28.152361201953124Q100.720047,28.016143021953123,100.384901,27.896225391953124Q100.049753,27.776307821953125,99.709126,27.672979591953126Q99.368498,27.569651241953125,99.023211,27.483161271953126Q98.67792299999999,27.396671261953124,98.328808,27.327227891953125Q97.979692,27.257784511953126,97.62759,27.205555081953126Q97.275488,27.153325641953124,96.921248,27.118435956953125Q96.567007,27.083546265953125,96.21148099999999,27.066080383953125Q95.855955,27.048614501953125,95.5,27.048614501953125Q95.144045,27.048614501953125,94.78851900000001,27.066080383953125Q94.432993,27.083546265953125,94.078753,27.118435956953125Q93.72451,27.153325641953124,93.37240800000001,27.205555081953126Q93.020306,27.257784511953126,92.67119,27.327227891953125Q92.322075,27.396671261953124,91.976788,27.483161271953126Q91.6315,27.569651241953125,91.290873,27.672979591953126Q90.9502449,27.776307821953125,90.615097,27.896225451953125Q90.2799492,28.016143021953123,89.9510899,28.152361201953124Q89.6222305,28.288579201953127,89.3004503,28.440769601953125Q88.9786711,28.592959901953126,88.6647468,28.760756001953126Q88.3508224,28.928551901953124,88.0455098,29.111549401953127Q87.7401972,29.294546601953126,87.444231,29.492304801953125Q87.1482654,29.690063001953124,86.86236,29.902105101953126Q86.5764542,30.114147401953126,86.3012972,30.339963001953123Q86.0261402,30.565778301953124,85.7623949,30.804823201953127Q85.4986496,31.043867801953127,85.2469516,31.295566101953124Q84.9952533,31.547264101953125,84.7562087,31.811009401953125Q84.5171638,32.074754701953125,84.2913485,32.349911701953125Q84.0655329,32.625068701953126,83.8534906,32.91097400195312Q83.6414485,33.196879901953125,83.4436905,33.49284550195313Q83.2459323,33.78881170195312,83.0629349,34.094123801953124Q82.8799375,34.39943690195312,82.7121416,34.713361701953126Q82.5443455,35.027285601953125,82.3921551,35.349065801953124Q82.2399647,35.670845001953126,82.1037467,35.999704401953124Q81.96752852,36.32856370195313,81.84761089,36.663711501953124Q81.72769332,36.998859401953126,81.62436509,37.33948750195312Q81.52103674,37.68011450195313,81.43454677,38.025402501953124Q81.34805676,38.37068950195312,81.27861339,38.71980450195312Q81.20917001,39.06892050195312,81.15694058,39.421022501953125Q81.10471114,39.77312450195313,81.069821455,40.127367501953124Q81.034931764,40.48160750195312,81.017465882,40.837133501953126Q81,41.19265950195312,81,41.548614501953125Q81,41.90456950195313,81.017465882,42.260095501953124Q81.034931764,42.61562150195313,81.069821455,42.969861501953126Q81.10471114,43.32410250195312,81.15694058,43.67620450195312Q81.20917001,44.028306501953125,81.27861339,44.37742250195312Q81.34805676,44.726537501953125,81.43454677,45.071826501953126Q81.52103674,45.41711450195312,81.62436509,45.75774150195312Q81.72769332,46.09836950195313,81.84761095,46.433515501953124Q81.96752852,46.768661501953126,82.1037467,47.09752250195312Q82.2399647,47.426380501953126,82.3921551,47.74816150195312Q82.5443454,48.06994250195312,82.7121415,48.38386750195313Q82.8799374,48.697792501953124,83.0629349,49.00310350195312Q83.2459321,49.30841450195312,83.4436903,49.60438150195313Q83.6414485,49.90034650195312,83.8534906,50.18625250195312Q84.0655329,50.47216050195313,84.2913485,50.747318501953124Q84.5171638,51.022472501953125,84.7562087,51.28621650195312Q84.9952533,51.549962501953125,85.2469516,51.801662501953125Q85.4986496,52.053359501953125,85.7623949,52.292406501953124Q86.0261402,52.531450501953124,86.3012972,52.757266501953126Q86.5764542,52.98308150195312,86.8623595,53.19512350195312Q87.1482654,53.40716550195312,87.444231,53.604923501953124Q87.7401972,53.80268050195313,88.0455093,53.98567750195312Q88.3508224,54.16867450195312,88.6647472,54.33647150195313Q88.9786711,54.50426850195312,89.3004513,54.65645750195313Q89.6222305,54.808647501953125,89.9510899,54.94486650195313Q90.2799492,55.081085501953126,90.615097,55.20100450195312Q90.9502449,55.320920501953125,91.290873,55.42424950195313Q91.6315,55.52757650195312,91.976788,55.61406750195313Q92.322075,55.70055750195313,92.67119,55.77000050195312Q93.020306,55.83944350195313,93.37240800000001,55.891674501953126Q93.72451,55.94390450195313,94.078753,55.978794501953125Q94.432993,56.013683501953125,94.78851900000001,56.03114750195313Q95.144045,56.048614501953125,95.5,56.048614501953125ZM104.231333,47.38075050195312Q104.661423,46.73685850195312,104.992409,46.036842501953124Q105.323393,45.33682250195312,105.548109,44.59582550195313Q105.772827,43.854827501953125,105.886414,43.08888250195312Q106,42.32293750195313,106,41.548614501953125Q106,41.29085350195312,105.98734999999999,41.03340450195313Q105.974705,40.77595550195312,105.94944,40.519435501953126Q105.924173,40.262915501953124,105.886353,40.007944501953126Q105.84853,39.75297350195312,105.798243,39.50016550195313Q105.747955,39.24735850195312,105.685326,38.99732250195312Q105.622694,38.74728550195312,105.547871,38.500625501953124Q105.473045,38.25396350195312,105.38620900000001,38.01127050195313Q105.299372,37.768577501953125,105.200731,37.530437501953124Q105.102091,37.29229750195313,104.991884,37.05928450195312Q104.881678,36.826273001953126,104.76017,36.598948501953124Q104.638662,36.37162400195312,104.506145,36.15053560195312Q104.373631,35.92944620195313,104.23042699999999,35.715126001953124Q104.087223,35.50080590195313,103.933674,35.29377080195312Q103.780128,35.086735701953124,103.616608,34.887485001953124Q103.453085,34.68823340195313,103.279984,34.49724580195313Q103.10688400000001,34.30625720195312,102.92462,34.12399290195312Q102.742355,33.94172860195312,102.551367,33.76862760195313Q102.36037999999999,33.59552620195313,102.161129,33.43200490195312Q101.961876,33.268483201953124,101.754841,33.11493490195313Q101.54780600000001,32.96138720195312,101.333485,32.81818290195312Q101.119164,32.67497920195312,100.898075,32.54246330195313Q100.676987,32.40994830195312,100.449663,32.28844070195313Q100.22233800000001,32.16693310195313,99.98932500000001,32.05672650195312Q99.756313,31.946519801953123,99.518173,31.847878901953123Q99.280033,31.749238501953126,99.03734,31.662401701953126Q98.794647,31.575564901953125,98.547989,31.500741001953124Q98.301327,31.425916701953124,98.051289,31.363286001953124Q97.801254,31.300655401953126,97.548447,31.250369101953126Q97.295639,31.200082801953126,97.040668,31.162261501953125Q96.7857,31.124440201953124,96.529181,31.099175501953127Q96.272661,31.073910201953126,96.015211,31.061262101953126Q95.757761,31.048614501953125,95.5,31.048614501953125Q94.801027,31.048614501953125,94.108222,31.141264001953125Q93.415415,31.233913401953124,92.741002,31.417576301953126Q92.066591,31.601240201953125,91.422474,31.872676401953125Q90.7783575,32.144112601953125,90.1759033,32.49853180195313L104.231333,47.38075050195312ZM101.414808,50.22415750195313Q100.76467099999999,50.66740750195312,100.055737,51.00881050195312Q99.346798,51.35021250195312,98.594898,51.58213950195312Q97.84299899999999,51.814067501953126,97.064928,51.93134150195313Q96.286858,52.048614501953125,95.5,52.048614501953125Q95.242239,52.048614501953125,94.98479,52.035964501953124Q94.727341,52.023319501953125,94.470821,51.99805450195312Q94.214301,51.97278750195312,93.95933,51.934967501953125Q93.704359,51.89714450195312,93.451551,51.846857501953124Q93.198744,51.79656950195313,92.948708,51.73394050195313Q92.698671,51.67130850195312,92.452011,51.596485501953126Q92.205349,51.521659501953124,91.962656,51.434823501953126Q91.719963,51.34798650195313,91.481823,51.24934550195313Q91.243683,51.15070550195313,91.01067,51.040498501953124Q90.7776585,50.930292501953126,90.55033399999999,50.80878450195313Q90.3230095,50.68727650195312,90.1019211,50.55475950195313Q89.8808317,50.42224550195313,89.6665115,50.279041501953124Q89.4521914,50.13583750195313,89.2451563,49.98228850195312Q89.0381212,49.82874250195313,88.8388705,49.665222501953124Q88.6396189,49.50169950195313,88.4486313,49.328598501953124Q88.2576427,49.155498501953126,88.0753784,48.97323450195313Q87.8931141,48.79096950195313,87.7200131,48.599981501953124Q87.5469117,48.408994501953124,87.3833904,48.20974350195313Q87.2198687,48.01049050195313,87.0663204,47.803455501953124Q86.9127727,47.596420501953126,86.7695684,47.38209950195312Q86.6263647,47.16777850195312,86.4938488,46.946689501953124Q86.3613338,46.72560150195312,86.2398262,46.498277501953126Q86.1183186,46.270952501953126,86.008112,46.037939501953126Q85.8979053,45.804927501953124,85.7992644,45.56678750195313Q85.7006235,45.32864750195313,85.6137867,45.085954501953125Q85.5269499,44.84326150195312,85.4521265,44.596603501953126Q85.3773022,44.349941501953126,85.3146715,44.09990350195312Q85.2520409,43.849868501953125,85.2017546,43.59706150195312Q85.1514683,43.344253501953126,85.1136465,43.08928250195312Q85.0758257,42.83431450195312,85.0505605,42.577795501953126Q85.0252953,42.321275501953124,85.0126476,42.063825501953126Q85,41.80637550195313,85,41.548614501953125Q85,41.11819050195312,85.0352297,40.689208501953125Q85.0704594,40.260227501953125,85.1406822,39.83556850195313Q85.2109051,39.41090950195313,85.31565,38.993423501953124Q85.4203949,38.575935501953126,85.558959,38.168422501953124Q85.6975231,37.76091050195313,85.8689766,37.366106501953126Q86.0404301,36.97130200195313,86.2436218,36.591856001953126Q86.4468145,36.212410001953124,86.6803818,35.850868201953126Q86.913949,35.48932650195312,87.1763234,35.14811420195313L101.414808,50.22415750195313Z" fill-rule="evenodd" fill="url(#master_svgf_11_12754)" fill-opacity="1"/></g><g><path d="M94.5,55.000030517578125Q94.855955,55.000030517578125,95.21148099999999,54.98256351757813Q95.567007,54.965099517578125,95.921247,54.930210517578125Q96.275488,54.89532051757813,96.62759,54.843090517578126Q96.979692,54.79085951757813,97.328808,54.72141651757812Q97.67792299999999,54.65197351757813,98.023212,54.56548351757813Q98.3685,54.47899251757812,98.709127,54.37566551757813Q99.049755,54.272336517578125,99.384901,54.15241851757813Q99.720047,54.032501517578126,100.048908,53.89628251757813Q100.37776600000001,53.760063517578125,100.699547,53.60787351757813Q101.021328,53.45568451757812,101.335253,53.28788751757813Q101.649178,53.12009051757812,101.954489,52.93709351757812Q102.2598,52.75409651757813,102.555767,52.55633751757813Q102.851732,52.35857951757812,103.137638,52.146537517578125Q103.423546,51.93449751757812,103.69870399999999,51.708682517578126Q103.973858,51.482866517578124,104.237602,51.24382051757813Q104.50134800000001,51.004775517578125,104.753048,50.753078517578125Q105.004745,50.501378517578125,105.243792,50.23763251757812Q105.48283599999999,49.973888517578125,105.708652,49.69873251757812Q105.934467,49.423574517578125,106.146509,49.13766851757812Q106.358551,48.85176251757812,106.556309,48.55579751757813Q106.754066,48.25983051757812,106.937063,47.95452151757813Q107.12006,47.649208517578124,107.287857,47.33528351757813Q107.455654,47.02135851757812,107.607843,46.69957751757812Q107.76003299999999,46.377796517578126,107.896252,46.04893851757812Q108.032471,45.720077517578126,108.15239,45.384931517578124Q108.272306,45.04978351757812,108.375635,44.70915651757812Q108.478962,44.36852851757813,108.565453,44.02324151757813Q108.651943,43.677953517578125,108.721386,43.32883851757812Q108.790829,42.979722517578125,108.84306000000001,42.62762051757812Q108.89529,42.27551851757812,108.93018000000001,41.92127851757812Q108.965069,41.56703751757813,108.982533,41.211511517578124Q109,40.85598551757813,109,40.500030517578125Q109,40.14407551757812,108.982536,39.788549517578126Q108.965069,39.43302351757812,108.93018000000001,39.078783517578124Q108.89529,38.72454051757813,108.84306000000001,38.372438517578125Q108.790829,38.02033651757812,108.721386,37.67122051757812Q108.651943,37.32210551757812,108.565453,36.976818517578124Q108.478962,36.63153051757813,108.375635,36.29090351757812Q108.272306,35.950275417578126,108.152388,35.615127517578124Q108.032471,35.27997971757813,107.896252,34.951120417578124Q107.76003299999999,34.622261017578126,107.607843,34.300480817578126Q107.455654,33.978701617578125,107.287857,33.66477731757813Q107.12006,33.35085291757812,106.937063,33.04554031757812Q106.754066,32.74022771757812,106.556307,32.44426151757813Q106.358549,32.148295917578125,106.146507,31.862390517578124Q105.934467,31.576484717578126,105.708652,31.301327717578125Q105.48283599999999,31.026170717578125,105.24379,30.762425417578125Q105.004745,30.498680117578125,104.753048,30.246982117578124Q104.50134800000001,29.995283817578127,104.237602,29.756239217578127Q103.973858,29.517194317578124,103.698702,29.291379017578123Q103.42354399999999,29.065563417578126,103.137638,28.853521117578126Q102.851732,28.641479017578124,102.555767,28.443721017578124Q102.2598,28.245962817578125,101.954491,28.062965417578127Q101.649178,27.879968017578125,101.335253,27.712172117578124Q101.021328,27.544376017578124,100.699547,27.392185617578125Q100.37776600000001,27.239995217578127,100.048908,27.103777217578124Q99.720047,26.967559037578123,99.384901,26.847641407578124Q99.049753,26.727723837578125,98.709126,26.624395607578126Q98.368498,26.521067257578125,98.023211,26.434577287578126Q97.67792299999999,26.348087277578124,97.328808,26.278643907578125Q96.979692,26.209200527578126,96.62759,26.156971097578126Q96.275488,26.104741657578124,95.921248,26.069851972578125Q95.567007,26.034962281578125,95.21148099999999,26.017496399578125Q94.855955,26.000030517578125,94.5,26.000030517578125Q94.144045,26.000030517578125,93.78851900000001,26.017496399578125Q93.432993,26.034962281578125,93.078753,26.069851972578125Q92.72451,26.104741657578124,92.37240800000001,26.156971097578126Q92.020306,26.209200527578126,91.67119,26.278643907578125Q91.322075,26.348087277578124,90.976788,26.434577287578126Q90.6315,26.521067257578125,90.290873,26.624395607578126Q89.9502449,26.727723837578125,89.615097,26.847641467578125Q89.2799492,26.967559037578123,88.9510899,27.103777217578124Q88.6222305,27.239995217578127,88.3004503,27.392185617578125Q87.9786711,27.544375917578126,87.6647468,27.712172017578126Q87.3508224,27.879967917578124,87.0455098,28.062965417578127Q86.7401972,28.245962617578126,86.444231,28.443720817578125Q86.1482654,28.641479017578124,85.86236,28.853521117578126Q85.5764542,29.065563417578126,85.3012972,29.291379017578123Q85.0261402,29.517194317578124,84.7623949,29.756239217578127Q84.4986496,29.995283817578127,84.2469516,30.246982117578124Q83.9952533,30.498680117578125,83.7562087,30.762425417578125Q83.5171638,31.026170717578125,83.2913485,31.301327717578125Q83.0655329,31.576484717578126,82.8534906,31.862390017578125Q82.6414485,32.148295917578125,82.4436905,32.44426151757813Q82.2459323,32.74022771757812,82.0629349,33.045539817578124Q81.8799375,33.35085291757812,81.7121416,33.664777717578126Q81.5443455,33.978701617578125,81.3921551,34.300481817578124Q81.2399647,34.622261017578126,81.1037467,34.951120417578124Q80.96752852,35.27997971757813,80.84761089,35.615127517578124Q80.72769332,35.950275417578126,80.62436509,36.29090351757812Q80.52103674,36.63153051757813,80.43454677,36.976818517578124Q80.34805676,37.32210551757812,80.27861339,37.67122051757812Q80.20917001,38.02033651757812,80.15694058,38.372438517578125Q80.10471114,38.72454051757813,80.069821455,39.078783517578124Q80.034931764,39.43302351757812,80.017465882,39.788549517578126Q80,40.14407551757812,80,40.500030517578125Q80,40.85598551757813,80.017465882,41.211511517578124Q80.034931764,41.56703751757813,80.069821455,41.921277517578126Q80.10471114,42.27551851757812,80.15694058,42.62762051757812Q80.20917001,42.979722517578125,80.27861339,43.32883851757812Q80.34805676,43.677953517578125,80.43454677,44.023242517578126Q80.52103674,44.36853051757812,80.62436509,44.70915751757812Q80.72769332,45.04978551757813,80.84761095,45.384931517578124Q80.96752852,45.720077517578126,81.1037467,46.04893851757812Q81.2399647,46.377796517578126,81.3921551,46.69957751757812Q81.5443454,47.02135851757812,81.7121415,47.33528351757813Q81.8799374,47.649208517578124,82.0629349,47.95451951757812Q82.2459321,48.25983051757812,82.4436903,48.55579751757813Q82.6414485,48.85176251757812,82.8534906,49.13766851757812Q83.0655329,49.42357651757813,83.2913485,49.698734517578124Q83.5171638,49.973888517578125,83.7562087,50.23763251757812Q83.9952533,50.501378517578125,84.2469516,50.753078517578125Q84.4986496,51.004775517578125,84.7623949,51.243822517578124Q85.0261402,51.482866517578124,85.3012972,51.708682517578126Q85.5764542,51.93449751757812,85.8623595,52.14653951757812Q86.1482654,52.35858151757812,86.444231,52.556339517578124Q86.7401972,52.75409651757813,87.0455093,52.93709351757812Q87.3508224,53.12009051757812,87.6647472,53.28788751757813Q87.9786711,53.45568451757812,88.3004513,53.60787351757813Q88.6222305,53.760063517578125,88.9510899,53.89628251757813Q89.2799492,54.032501517578126,89.615097,54.15242051757812Q89.9502449,54.272336517578125,90.290873,54.37566551757813Q90.6315,54.47899251757812,90.976788,54.56548351757813Q91.322075,54.65197351757813,91.67119,54.72141651757812Q92.020306,54.79085951757813,92.37240800000001,54.843090517578126Q92.72451,54.89532051757813,93.078753,54.930210517578125Q93.432993,54.965099517578125,93.78851900000001,54.98256351757813Q94.144045,55.000030517578125,94.5,55.000030517578125ZM103.231333,46.33216651757812Q103.661423,45.68827451757812,103.992409,44.988258517578124Q104.323393,44.28823851757812,104.548109,43.54724151757813Q104.772827,42.806243517578125,104.886414,42.04029851757812Q105,41.27435351757813,105,40.500030517578125Q105,40.24226951757812,104.98734999999999,39.98482051757813Q104.974705,39.72737151757812,104.94944,39.470851517578126Q104.924173,39.214331517578124,104.886353,38.959360517578126Q104.84853,38.70438951757812,104.798243,38.45158151757813Q104.747955,38.19877451757812,104.685326,37.94873851757812Q104.622694,37.69870151757812,104.547871,37.452041517578124Q104.473045,37.20537951757812,104.38620900000001,36.96268651757813Q104.299372,36.719993517578125,104.200731,36.481853517578124Q104.102091,36.24371351757813,103.991884,36.01070051757812Q103.881678,35.777689017578126,103.76017,35.550364517578124Q103.638662,35.32304001757812,103.506145,35.10195161757812Q103.373631,34.88086221757813,103.23042699999999,34.666542017578124Q103.087223,34.45222191757813,102.933674,34.24518681757812Q102.780128,34.038151717578124,102.616608,33.838901017578124Q102.453085,33.63964941757813,102.279984,33.44866181757813Q102.10688400000001,33.25767321757812,101.92462,33.07540891757812Q101.742355,32.89314461757812,101.551367,32.72004361757813Q101.36037999999999,32.54694221757813,101.161129,32.38342091757812Q100.961876,32.219899217578124,100.754841,32.06635091757813Q100.54780600000001,31.912803217578123,100.333485,31.769598917578126Q100.119164,31.626395217578125,99.898075,31.493879317578127Q99.676987,31.361364317578126,99.449663,31.239856717578125Q99.22233800000001,31.118349117578127,98.98932500000001,31.008142517578126Q98.756313,30.897935817578123,98.518173,30.799294917578123Q98.280033,30.700654517578126,98.03734,30.613817717578126Q97.794647,30.526980917578125,97.547989,30.452157017578124Q97.301327,30.377332717578124,97.051289,30.314702017578124Q96.801254,30.252071417578126,96.548447,30.201785117578126Q96.295639,30.151498817578126,96.040668,30.113677517578125Q95.7857,30.075856217578124,95.529181,30.050591517578127Q95.272661,30.025326217578126,95.015211,30.012678117578126Q94.757761,30.000030517578125,94.5,30.000030517578125Q93.801027,30.000030517578125,93.108222,30.092680017578125Q92.415415,30.185329417578124,91.741002,30.368992317578126Q91.066591,30.552656217578125,90.422474,30.824092417578125Q89.7783575,31.095528617578125,89.1759033,31.449947817578124L103.231333,46.33216651757812ZM100.414808,49.17557351757813Q99.76467099999999,49.61882351757812,99.055737,49.96022651757812Q98.346798,50.30162851757812,97.594898,50.53355551757812Q96.84299899999999,50.765483517578126,96.064928,50.88275751757813Q95.286858,51.000030517578125,94.5,51.000030517578125Q94.242239,51.000030517578125,93.98479,50.987380517578124Q93.727341,50.974735517578125,93.470821,50.94947051757812Q93.214301,50.92420351757812,92.95933,50.886383517578125Q92.704359,50.84856051757812,92.451551,50.798273517578124Q92.198744,50.74798551757813,91.948708,50.68535651757813Q91.698671,50.62272451757812,91.452011,50.547901517578126Q91.205349,50.473075517578124,90.962656,50.386239517578126Q90.719963,50.29940251757813,90.481823,50.20076151757813Q90.243683,50.10212151757813,90.01067,49.991914517578124Q89.7776585,49.881708517578126,89.55033399999999,49.76020051757813Q89.3230095,49.63869251757812,89.1019211,49.50617551757813Q88.8808317,49.37366151757813,88.6665115,49.230457517578124Q88.4521914,49.08725351757813,88.2451563,48.93370451757812Q88.0381212,48.78015851757813,87.8388705,48.616638517578124Q87.6396189,48.45311551757813,87.4486313,48.280014517578124Q87.2576427,48.106914517578126,87.0753784,47.92465051757813Q86.8931141,47.74238551757813,86.7200131,47.551397517578124Q86.5469117,47.360410517578124,86.3833904,47.16115951757813Q86.2198687,46.96190651757813,86.0663204,46.754871517578124Q85.9127727,46.547836517578126,85.7695684,46.33351551757812Q85.6263647,46.11919451757812,85.4938488,45.898105517578124Q85.3613338,45.67701751757812,85.2398262,45.449693517578126Q85.1183186,45.222368517578126,85.008112,44.989355517578126Q84.8979053,44.756343517578124,84.7992644,44.51820351757813Q84.7006235,44.28006351757813,84.6137867,44.037370517578125Q84.5269499,43.79467751757812,84.4521265,43.548019517578126Q84.3773022,43.301357517578126,84.3146715,43.05131951757812Q84.2520409,42.801284517578125,84.2017546,42.54847751757812Q84.1514683,42.295669517578126,84.1136465,42.04069851757812Q84.0758257,41.78573051757812,84.0505605,41.529211517578126Q84.0252953,41.272691517578124,84.0126476,41.015241517578126Q84,40.75779151757813,84,40.500030517578125Q84,40.06960651757812,84.0352297,39.640624517578125Q84.0704594,39.211643517578125,84.1406822,38.78698451757813Q84.2109051,38.36232551757813,84.31565,37.944839517578124Q84.4203949,37.527351517578126,84.558959,37.119838517578124Q84.6975231,36.71232651757813,84.8689766,36.317522517578126Q85.0404301,35.92271801757813,85.2436218,35.543272017578126Q85.4468145,35.163826017578124,85.6803818,34.802284217578126Q85.913949,34.44074251757812,86.1763234,34.09953021757813L100.414808,49.17557351757813Z" fill-rule="evenodd" fill="url(#master_svgg_11_12762)" fill-opacity="1"/></g><g clip-path="url(#master_svgh_14_05447)"></g></svg>